<svg xmlns="http://www.w3.org/2000/svg" width="1000" height="600" viewBox="0 0 1000 600" role="img" aria-label="Cosmic landscape">
  <defs>
    <linearGradient id="sky" x1="0" y1="0" x2="0" y2="1">
      <stop offset="0" stop-color="#0f172a"/>
      <stop offset="0.55" stop-color="#3b0764"/>
      <stop offset="1" stop-color="#7c3aed"/>
    </linearGradient>
    <radialGradient id="glow" cx="0.7" cy="0.3" r="0.5">
      <stop offset="0" stop-color="#f0abfc" stop-opacity="0.9"/>
      <stop offset="1" stop-color="#f0abfc" stop-opacity="0"/>
    </radialGradient>
  </defs>
  <rect width="1000" height="600" fill="url(#sky)"/>
  <rect width="1000" height="600" fill="url(#glow)"/>
  <circle cx="700" cy="180" r="90" fill="#fde68a" fill-opacity="0.95"/>
  <g fill="#ffffff">
    <circle cx="120" cy="90" r="2.5"/><circle cx="240" cy="160" r="1.8"/>
    <circle cx="320" cy="60" r="2"/><circle cx="460" cy="120" r="1.5"/>
    <circle cx="560" cy="70" r="2.2"/><circle cx="860" cy="120" r="1.8"/>
    <circle cx="900" cy="260" r="1.5"/><circle cx="180" cy="240" r="1.6"/>
    <circle cx="60" cy="180" r="1.4"/><circle cx="420" cy="220" r="1.3"/>
  </g>
  <path d="M0 470 Q250 380 500 450 T1000 430 V600 H0 Z" fill="#1e1b4b"/>
  <path d="M0 530 Q300 470 620 520 T1000 510 V600 H0 Z" fill="#312e81"/>
</svg>
